<?xml-stylesheet type="text/css" href="svg.css"?>
<svg width="1000" height="1000" viewBox="0 0 1000 1000" fill="none" xmlns="http://www.w3.org/2000/svg">
<g id="road">
<path id="Vector" d="M625.16 400C513.304 427.142 481.345 475.119 473.64 508.952C469.218 528.066 473.783 548.519 484.484 562.472C500.749 583.689 582.215 594.592 633.578 608.928C676.38 620.779 650.115 653.273 615.018 671.049C590.335 683.474 499.464 692.075 473.64 698.765C373.769 724.57 84.9833 752.087 292.016 999.044C293.158 999.618 294.442 1000 295.583 1000H444.522C453.368 1000 323.962 869.839 386.739 851.68C494.458 766.621 645.835 810.584 767.679 709.278C920.768 581.976 687.794 543.167 633.578 532.654C622.164 530.36 611.036 525.773 601.049 517.936C576.081 498.248 555.25 458.108 659.687 400.191H625.16V400Z" fill="#B46437" fill-opacity="0.74"/>
<g id="coffee-shop" filter="url(#filter0_d)">
<g id="Group">
<g id="Group_2">
<g id="Group_3">
<path id="Vector_2" d="M763.161 484.871H972.839V621.968H763.161V484.871Z" fill="#E6E9ED"/>
</g>
<g id="Group_4">
<path id="Vector_3" d="M747.032 452.613V480.839C747.032 483.056 748.847 484.871 751.065 484.871H763.161H972.839H984.935C987.153 484.871 988.968 483.056 988.968 480.839V452.613H747.032Z" fill="#FFEAA7"/>
</g>
<g id="Group_5">
<path id="Vector_4" d="M988.968 424.387V452.613H859.935V420.355H984.935C987.153 420.355 988.968 422.169 988.968 424.387Z" fill="#FCD770"/>
</g>
<g id="Group_6">
<path id="Vector_5" d="M763.161 420.355V452.613H747.032V424.387C747.032 422.169 748.847 420.355 751.065 420.355H763.161Z" fill="#FCD770"/>
</g>
<g id="Group_7">
<path id="Vector_6" d="M916.387 581.645H932.516V621.968H916.387V581.645Z" fill="#B27946"/>
</g>
<g id="Group_8">
<path id="Vector_7" d="M795.419 573.581V533.258C795.419 535.476 796.306 537.492 797.798 538.944C799.25 540.435 801.266 541.323 803.484 541.323C807.919 541.323 811.548 537.694 811.548 533.258C811.548 535.476 812.435 537.492 813.927 538.944C815.379 540.435 817.395 541.323 819.613 541.323C824.048 541.323 827.677 537.694 827.677 533.258C827.677 535.476 828.565 537.492 830.056 538.944C831.508 540.435 833.524 541.323 835.742 541.323C840.177 541.323 843.806 537.694 843.806 533.258V621.968H795.419V573.581Z" fill="#AAB2BD"/>
</g>
<g id="Group_9">
<path id="Vector_8" d="M876.065 501H956.71V549.387H876.065V501Z" fill="#69D6F4"/>
</g>
<g id="Group_10">
<path id="Vector_9" d="M980.903 597.774V621.968H964.774V597.774H972.839H980.903Z" fill="#D3A06C"/>
</g>
<g id="Group_11">
<path id="Vector_10" d="M884.129 597.774V621.968H868V597.774H876.065H884.129Z" fill="#D3A06C"/>
</g>
<g id="Group_12">
<path id="Vector_11" d="M956.71 565.516C961.145 565.516 964.774 569.145 964.774 573.581C964.774 575.798 963.887 577.815 962.395 579.266C960.944 580.758 958.927 581.645 956.71 581.645H932.516H916.387H892.194C887.758 581.645 884.129 578.016 884.129 573.581C884.129 571.363 885.016 569.347 886.508 567.895C887.96 566.403 889.976 565.516 892.194 565.516H956.71Z" fill="#D3A06C"/>
</g>
<g id="Group_13">
<path id="Vector_12" d="M779.29 604.952C779.29 605.556 779.21 606.121 779.089 606.685L776.79 615.879C775.903 619.468 772.677 621.968 768.968 621.968H757.355C753.645 621.968 750.419 619.468 749.532 615.879L747.234 606.685C747.113 606.121 747.032 605.556 747.032 604.952C747.032 601 750.258 597.774 754.21 597.774H763.161H772.113C776.065 597.774 779.29 601 779.29 604.952Z" fill="#D3A06C"/>
</g>
<g id="Group_14">
<path id="Vector_13" d="M778.403 563.218C779.008 564.75 779.29 566.363 779.29 567.976C779.29 575.516 773.161 581.645 765.621 581.645H763.161H760.702C756.952 581.645 753.524 580.113 751.024 577.653C748.565 575.153 747.032 571.726 747.032 567.976C747.032 566.363 747.315 564.75 747.919 563.218L757.718 537.048C758.565 534.75 760.742 533.258 763.161 533.258C765.581 533.258 767.758 534.75 768.605 537.048L778.403 563.218Z" fill="#B4DD7F"/>
</g>
<g id="Group_15">
<path id="Vector_14" d="M843.806 501H859.935V525.194H843.806V501Z" fill="#FF826E"/>
</g>
<g id="Group_16">
<path id="Vector_15" d="M811.548 501H827.677V525.194H811.548V501Z" fill="#FF826E"/>
</g>
<g id="Group_17">
<path id="Vector_16" d="M779.29 501H795.419V525.194H779.29V501Z" fill="#FF826E"/>
</g>
<g id="Group_18">
<path id="Vector_17" d="M827.677 501H843.806V525.194H827.677V501Z" fill="#FFEAA7"/>
</g>
<g id="Group_19">
<path id="Vector_18" d="M795.419 501H811.548V525.194H795.419V501Z" fill="#FFEAA7"/>
</g>
<g id="Group_20">
<path id="Vector_19" d="M827.677 525.194H843.806V533.258C843.806 537.694 840.177 541.323 835.742 541.323C833.524 541.323 831.508 540.436 830.056 538.944C828.565 537.492 827.677 535.476 827.677 533.258V525.194Z" fill="#FCD770"/>
</g>
<g id="Group_21">
<path id="Vector_20" d="M811.548 525.194V533.258C811.548 537.694 807.919 541.323 803.484 541.323C801.266 541.323 799.25 540.436 797.798 538.944C796.306 537.492 795.419 535.476 795.419 533.258V525.194H811.548Z" fill="#FCD770"/>
</g>
<g id="Group_22">
<path id="Vector_21" d="M859.935 525.194V533.258C859.935 537.694 856.306 541.323 851.871 541.323C849.653 541.323 847.637 540.436 846.185 538.944C844.694 537.492 843.806 535.476 843.806 533.258V525.194H859.935Z" fill="#FC6E51"/>
</g>
<g id="Group_23">
<path id="Vector_22" d="M827.677 533.258C827.677 537.694 824.048 541.323 819.613 541.323C817.395 541.323 815.379 540.436 813.927 538.944C812.435 537.492 811.548 535.476 811.548 533.258V525.194H827.677V533.258Z" fill="#FC6E51"/>
</g>
<g id="Group_24">
<path id="Vector_23" d="M795.419 525.194V533.258C795.419 537.694 791.79 541.323 787.355 541.323C785.137 541.323 783.121 540.436 781.669 538.944C780.177 537.492 779.29 535.476 779.29 533.258V525.194H795.419Z" fill="#FC6E51"/>
</g>
<g id="Group_25">
<path id="Vector_24" d="M767.194 380.032H855.903C858.121 380.032 859.935 381.847 859.935 384.065V420.355V452.613V464.71C859.935 466.927 858.121 468.742 855.903 468.742H767.194C764.976 468.742 763.161 466.927 763.161 464.71V452.613V420.355V384.065C763.161 381.847 764.976 380.032 767.194 380.032Z" fill="#E6E9ED"/>
</g>
<g id="Group_26">
<path id="Vector_25" d="M827.677 420.355V428.419C827.677 432.774 826.548 436.847 824.532 440.355C820.379 447.653 812.476 452.613 803.484 452.613C790.137 452.613 779.29 441.766 779.29 428.419V416.323C779.29 414.105 781.105 412.29 783.323 412.29H823.645C825.863 412.29 827.677 414.105 827.677 416.323V420.355Z" fill="#CF9E76"/>
</g>
</g>
<g id="Group_27">
<path id="Vector_26" d="M834.944 416.323H831.71C831.71 411.875 828.093 408.258 823.645 408.258H783.323C778.875 408.258 775.258 411.875 775.258 416.323V428.419C775.258 436.315 778.524 443.452 783.766 448.581H775.258V456.645H831.71V448.581H823.202C824.633 447.177 825.919 445.629 827.028 443.952L837.472 441.863C843.48 440.661 847.839 435.343 847.839 429.218C847.839 422.109 842.052 416.323 834.944 416.323ZM823.645 428.419C823.645 439.536 814.601 448.581 803.484 448.581C792.367 448.581 783.323 439.536 783.323 428.419V416.323H823.645V428.419ZM835.891 433.956L830.919 434.952C831.415 432.851 831.71 430.669 831.71 428.419V424.387H834.944C837.605 424.387 839.774 426.556 839.774 429.218C839.774 431.512 838.141 433.504 835.891 433.956Z" fill="black"/>
<path id="Vector_27" d="M783.323 392.129H791.387V400.194H783.323V392.129Z" fill="black"/>
<path id="Vector_28" d="M799.452 392.129H807.516V400.194H799.452V392.129Z" fill="black"/>
<path id="Vector_29" d="M815.581 392.129H823.645V400.194H815.581V392.129Z" fill="black"/>
<path id="Vector_30" d="M976.871 553.419V488.903H984.935C989.383 488.903 993 485.286 993 480.839V424.387C993 419.94 989.383 416.323 984.935 416.323H863.968V384.065C863.968 379.617 860.351 376 855.903 376H767.194C762.746 376 759.129 379.617 759.129 384.065V416.323H751.065C746.617 416.323 743 419.94 743 424.387V480.839C743 485.286 746.617 488.903 751.065 488.903H759.129V530.117C756.782 531.177 754.871 533.121 753.935 535.617L744.125 561.782C743.379 563.778 743 565.867 743 567.992C743 577.21 750.117 584.718 759.129 585.52V593.742H754.214C748.032 593.742 743 598.774 743 604.956C743 605.867 743.113 606.774 743.335 607.673L745.625 616.839C746.976 622.23 751.802 626 757.363 626H993V617.935H984.935V601.065C989.617 599.395 993 594.96 993 589.71V553.419H984.935V589.71C984.935 591.935 983.125 593.742 980.903 593.742H952.677V601.806H960.742V617.935H936.548V585.677H956.71C963.379 585.677 968.806 580.25 968.806 573.581C968.806 566.911 963.379 561.484 956.71 561.484H892.194C885.524 561.484 880.097 566.911 880.097 573.581C880.097 580.25 885.524 585.677 892.194 585.677H912.355V617.935H888.161V601.806H896.226V593.742H868C865.778 593.742 863.968 591.935 863.968 589.71V553.419H855.903V589.71C855.903 594.96 859.286 599.395 863.968 601.065V617.935H847.839V544.613C849.105 545.065 850.452 545.355 851.871 545.355C858.54 545.355 863.968 539.927 863.968 533.258V496.968H775.258V533.258C775.258 539.927 780.685 545.355 787.355 545.355C788.774 545.355 790.121 545.065 791.387 544.613V617.935H780.367C780.492 617.577 780.605 617.21 780.698 616.839L782.988 607.673C783.21 606.774 783.323 605.867 783.323 604.956C783.323 598.774 778.29 593.742 772.109 593.742H767.194V585.52C776.206 584.718 783.323 577.21 783.323 567.992C783.323 565.867 782.944 563.778 782.198 561.778L772.387 535.621C771.452 533.125 769.54 531.181 767.194 530.117V488.903H968.806V553.419H976.871ZM968.806 601.806H976.871V617.935H968.806V601.806ZM888.161 573.581C888.161 571.355 889.972 569.548 892.194 569.548H956.71C958.931 569.548 960.742 571.355 960.742 573.581C960.742 575.806 958.931 577.613 956.71 577.613H892.194C889.972 577.613 888.161 575.806 888.161 573.581ZM920.419 585.677H928.484V617.935H920.419V585.677ZM872.032 601.806H880.097V617.935H872.032V601.806ZM799.452 529.226H807.516V533.258C807.516 535.484 805.706 537.29 803.484 537.29C801.262 537.29 799.452 535.484 799.452 533.258V529.226ZM823.645 521.161H815.581V505.032H823.645V521.161ZM831.71 505.032H839.774V521.161H831.71V505.032ZM807.516 521.161H799.452V505.032H807.516V521.161ZM815.581 529.226H823.645V533.258C823.645 535.484 821.835 537.29 819.613 537.29C817.391 537.29 815.581 535.484 815.581 533.258V529.226ZM831.71 529.226H839.774V533.258C839.774 535.484 837.964 537.29 835.742 537.29C833.52 537.29 831.71 535.484 831.71 533.258V529.226ZM851.871 537.29C849.649 537.29 847.839 535.484 847.839 533.258V529.226H855.903V533.258C855.903 535.484 854.093 537.29 851.871 537.29ZM855.903 521.161H847.839V505.032H855.903V521.161ZM791.387 505.032V521.161H783.323V505.032H791.387ZM787.355 537.29C785.133 537.29 783.323 535.484 783.323 533.258V529.226H791.387V533.258C791.387 535.484 789.577 537.29 787.355 537.29ZM799.452 577.613H807.516V569.548H799.452V544.613C800.718 545.065 802.065 545.355 803.484 545.355C806.593 545.355 809.403 544.141 811.548 542.21C813.694 544.145 816.504 545.355 819.613 545.355C822.722 545.355 825.532 544.141 827.677 542.21C829.823 544.145 832.633 545.355 835.742 545.355C837.161 545.355 838.508 545.065 839.774 544.613V617.935H799.452V577.613ZM775.258 604.956C775.258 605.21 775.226 605.468 775.165 605.718L772.875 614.875C772.423 616.677 770.815 617.935 768.96 617.935H757.363C755.512 617.935 753.899 616.677 753.452 614.883L751.165 605.726C751.097 605.468 751.065 605.214 751.065 604.956C751.065 603.222 752.476 601.806 754.214 601.806H772.109C773.847 601.806 775.258 603.222 775.258 604.956ZM774.645 564.609C775.052 565.702 775.258 566.839 775.258 567.992C775.258 573.298 770.944 577.613 765.637 577.613H760.685C755.379 577.613 751.065 573.298 751.065 567.992C751.065 566.839 751.27 565.702 751.677 564.613L761.488 538.448C761.75 537.754 762.419 537.29 763.161 537.29C763.903 537.29 764.573 537.754 764.835 538.452L774.645 564.609ZM984.935 424.387V448.581H863.968V424.387H984.935ZM767.194 384.065H855.903L855.907 464.71H767.194V384.065ZM759.129 424.387V448.581H751.065V424.387H759.129ZM751.065 456.645H759.129V464.71C759.129 469.157 762.746 472.774 767.194 472.774H855.903C860.351 472.774 863.968 469.157 863.968 464.71V456.645H984.935V480.839H751.065V456.645Z" fill="black"/>
<path id="Vector_31" d="M960.742 553.419V496.968H872.032V553.419H960.742ZM952.677 545.355H920.419V505.032H952.677V545.355ZM880.097 505.032H912.355V545.355H880.097V505.032Z" fill="black"/>
</g>
</g>
</g>
<g id="mark2" filter="url(#filter1_d)">
<path id="Vector_32" d="M741.564 539.215C728.596 566.032 719.611 595.407 714.526 614.548C712.915 620.484 706.05 620.484 704.439 614.548C699.354 595.51 690.369 566.134 677.401 539.215C663.415 510.146 677.909 471.866 705.711 469.205C706.982 469.102 708.169 469 709.44 469C710.712 469 711.898 469.102 713.17 469.205C741.056 471.866 755.634 510.044 741.564 539.215Z" fill="#27A2DB"/>
<path id="Vector_33" d="M709.525 545.561C724.13 545.561 735.97 531.263 735.97 513.626C735.97 495.989 724.13 481.692 709.525 481.692C694.92 481.692 683.08 495.989 683.08 513.626C683.08 531.263 694.92 545.561 709.525 545.561Z" fill="#EBF0F3"/>
</g>
<g id="restaurant" filter="url(#filter2_d)">
<path id="Vector_34" d="M333.774 658.065H140.226V770.968H333.774V658.065Z" fill="#ECECEC"/>
<path id="Vector_35" d="M333.774 758.871H140.226V770.968H333.774V758.871Z" fill="#B6C1CE"/>
<path id="Vector_36" d="M321.677 569.355H285.387H188.613H152.323L128.129 641.935V654.032C128.129 660.714 133.544 666.129 140.226 666.129C146.907 666.129 152.323 660.714 152.323 654.032C152.323 660.714 157.738 666.129 164.419 666.129C171.101 666.129 176.516 660.714 176.516 654.032C176.516 660.714 181.931 666.129 188.613 666.129C195.294 666.129 200.71 660.714 200.71 654.032C200.71 660.714 206.125 666.129 212.806 666.129C219.488 666.129 224.903 660.714 224.903 654.032C224.903 660.714 230.319 666.129 237 666.129C243.681 666.129 249.097 660.714 249.097 654.032C249.097 660.714 254.512 666.129 261.194 666.129C267.875 666.129 273.29 660.714 273.29 654.032C273.29 660.714 278.706 666.129 285.387 666.129C292.069 666.129 297.484 660.714 297.484 654.032C297.484 660.714 302.899 666.129 309.581 666.129C316.262 666.129 321.677 660.714 321.677 654.032C321.677 660.714 327.093 666.129 333.774 666.129C340.456 666.129 345.871 660.714 345.871 654.032V641.935L321.677 569.355Z" fill="#FB5968"/>
<path id="Vector_37" d="M140.226 666.129C146.907 666.129 152.323 660.714 152.323 654.032C152.323 660.714 157.738 666.129 164.419 666.129C171.101 666.129 176.516 660.714 176.516 654.032C176.516 660.714 181.931 666.129 188.613 666.129C195.294 666.129 200.71 660.714 200.71 654.032C200.71 660.714 206.125 666.129 212.806 666.129C219.488 666.129 224.903 660.714 224.903 654.032C224.903 660.714 230.319 666.129 237 666.129C243.681 666.129 249.097 660.714 249.097 654.032C249.097 660.714 254.512 666.129 261.194 666.129C267.875 666.129 273.29 660.714 273.29 654.032C273.29 660.714 278.706 666.129 285.387 666.129C292.069 666.129 297.484 660.714 297.484 654.032C297.484 660.714 302.899 666.129 309.581 666.129C316.262 666.129 321.677 660.714 321.677 654.032C321.677 660.714 327.093 666.129 333.774 666.129C340.456 666.129 345.871 660.714 345.871 654.032V641.935H128.129V654.032C128.129 660.714 133.544 666.129 140.226 666.129Z" fill="#CD2C5A"/>
<path id="Vector_38" d="M237 625.806C263.723 625.806 285.387 604.143 285.387 577.419C285.387 550.696 263.723 529.032 237 529.032C210.277 529.032 188.613 550.696 188.613 577.419C188.613 604.143 210.277 625.806 237 625.806Z" fill="#FFEAA7"/>
<g id="Group_28">
<path id="Vector_39" d="M176.516 738.71C176.27 738.71 176.04 738.766 175.798 738.782C174.153 734.056 169.706 730.645 164.419 730.645C163.44 730.645 162.496 730.794 161.585 731.016C159.367 728.347 156.065 726.613 152.323 726.613C148.581 726.613 145.278 728.347 143.061 731.016C142.149 730.794 141.206 730.645 140.226 730.645C134.94 730.645 130.492 734.056 128.847 738.782C128.605 738.766 128.375 738.71 128.129 738.71C121.448 738.71 116.032 744.125 116.032 750.806V770.968H188.613V750.806C188.613 744.125 183.198 738.71 176.516 738.71Z" fill="#92E0C0"/>
<path id="Vector_40" d="M345.871 738.71C345.625 738.71 345.395 738.766 345.153 738.782C343.508 734.056 339.061 730.645 333.774 730.645C332.794 730.645 331.851 730.794 330.94 731.016C328.722 728.347 325.419 726.613 321.677 726.613C317.936 726.613 314.633 728.347 312.415 731.016C311.504 730.794 310.561 730.645 309.581 730.645C304.294 730.645 299.847 734.056 298.202 738.782C297.96 738.766 297.73 738.71 297.484 738.71C290.802 738.71 285.387 744.125 285.387 750.806V770.968H357.968V750.806C357.968 744.125 352.552 738.71 345.871 738.71Z" fill="#92E0C0"/>
</g>
<g id="Group_29">
<path id="Vector_41" d="M357.968 754.839H285.387V770.968H357.968V754.839Z" fill="#D3A06C"/>
<path id="Vector_42" d="M188.613 754.839H116.032V770.968H188.613V754.839Z" fill="#D3A06C"/>
</g>
<path id="Vector_43" d="M269.258 682.258H204.742V770.968H269.258V682.258Z" fill="#EABD8C"/>
<path id="Vector_44" d="M269.258 758.871H204.742V770.968H269.258V758.871Z" fill="#D3A06C"/>
<g id="Group_30">
<path id="Vector_45" d="M184.581 686.29H160.387V710.484H184.581V686.29Z" fill="#39C3FC"/>
<path id="Vector_46" d="M313.613 686.29H289.419V710.484H313.613V686.29Z" fill="#39C3FC"/>
</g>
<path id="Vector_47" d="M347.75 734.786C345.585 730.968 342.024 728.21 337.806 727.129V669.589C344.742 667.786 349.903 661.528 349.903 654.032V641.282L324.585 565.323H287.956C282.472 542.242 261.734 525 237 525C212.266 525 191.528 542.242 186.044 565.323H149.415L124.097 641.282V654.032C124.097 661.528 129.258 667.786 136.194 669.589V727.129C131.976 728.206 128.415 730.968 126.25 734.786C118.238 735.722 112 742.548 112 750.806V775H362V750.806C362 742.548 355.762 735.722 347.75 734.786ZM341.343 740.109L342.335 742.956L345.347 742.81C345.577 742.798 345.798 742.77 345.871 742.742C350.319 742.742 353.935 746.359 353.935 750.806H289.419C289.419 746.359 293.036 742.742 297.331 742.742L301.016 742.956L302.008 740.109C303.141 736.859 306.185 734.677 309.581 734.677C310.141 734.677 310.742 734.762 311.468 734.931L313.911 735.52L315.516 733.589C318.629 729.839 324.722 729.839 327.839 733.589L329.444 735.52L331.887 734.931C332.613 734.762 333.214 734.677 333.774 734.677C337.169 734.677 340.214 736.859 341.343 740.109ZM333.774 662.097C329.327 662.097 325.71 658.48 325.71 654.032V645.968H341.839V654.032C341.839 658.48 338.222 662.097 333.774 662.097ZM216.839 581.452C212.391 581.452 208.774 577.835 208.774 573.387C208.774 567.359 213.823 557.258 216.839 557.258C219.855 557.258 224.903 567.359 224.903 573.387C224.903 577.835 221.286 581.452 216.839 581.452ZM221.665 627.54L221.089 637.903H205.214L207.153 620.456C211.552 623.516 216.427 625.931 221.665 627.54ZM266.847 620.456L268.786 637.903H252.911L252.335 627.54C257.573 625.931 262.448 623.516 266.847 620.456ZM300.899 637.903L290.145 573.387H302.315L316.653 637.903H300.899ZM292.726 637.903H276.899L274.27 614.226C279.254 609.181 283.185 603.117 285.81 596.399L292.726 637.903ZM244.355 629.262L244.835 637.903H229.165L229.645 629.262C232.056 629.601 234.496 629.839 237 629.839C239.504 629.839 241.944 629.601 244.355 629.262ZM197.101 637.903H181.274L188.19 596.403C190.81 603.121 194.746 609.181 199.73 614.23L197.101 637.903ZM173.101 637.903H157.347L171.685 573.387H183.855L173.101 637.903ZM156.355 645.968H172.484V654.032C172.484 658.48 168.867 662.097 164.419 662.097C159.972 662.097 156.355 658.48 156.355 654.032V645.968ZM180.548 645.968H196.677V654.032C196.677 658.48 193.06 662.097 188.613 662.097C184.165 662.097 180.548 658.48 180.548 654.032V645.968ZM204.742 645.968H220.871V654.032C220.871 658.48 217.254 662.097 212.806 662.097C208.359 662.097 204.742 658.48 204.742 654.032V645.968ZM228.935 645.968H245.065V654.032C245.065 658.48 241.448 662.097 237 662.097C232.552 662.097 228.935 658.48 228.935 654.032V645.968ZM253.129 645.968H269.258V654.032C269.258 658.48 265.641 662.097 261.194 662.097C256.746 662.097 253.129 658.48 253.129 654.032V645.968ZM277.323 645.968H293.452V654.032C293.452 658.48 289.835 662.097 285.387 662.097C280.94 662.097 277.323 658.48 277.323 654.032V645.968ZM301.516 645.968H317.645V654.032C317.645 658.48 314.028 662.097 309.581 662.097C305.133 662.097 301.516 658.48 301.516 654.032V645.968ZM340.278 637.903H324.911L310.573 573.387H318.77L340.278 637.903ZM237 533.065C261.456 533.065 281.355 552.964 281.355 577.419C281.355 592.952 273.315 606.621 261.194 614.548V588.944C268.129 587.141 273.29 580.883 273.29 573.387V553.226H265.226V573.387C265.226 576.359 263.593 578.931 261.194 580.331V553.226H253.129V580.331C250.73 578.931 249.097 576.359 249.097 573.387V553.226H241.032V573.387C241.032 580.883 246.194 587.141 253.129 588.944V618.694C248.121 620.657 242.694 621.774 237 621.774C231.306 621.774 225.879 620.657 220.871 618.694V588.944C227.806 587.141 232.968 580.883 232.968 573.387C232.968 565.077 226.685 549.194 216.839 549.194C206.992 549.194 200.71 565.077 200.71 573.387C200.71 580.883 205.871 587.141 212.806 588.944V614.548C200.685 606.621 192.645 592.952 192.645 577.419C192.645 552.964 212.544 533.065 237 533.065ZM155.23 573.387H163.427L149.089 637.903H133.722L155.23 573.387ZM132.161 654.032V645.968H148.29V654.032C148.29 658.48 144.673 662.097 140.226 662.097C135.778 662.097 132.161 658.48 132.161 654.032ZM127.976 742.742L131.661 742.956L132.653 740.109C133.786 736.859 136.831 734.677 140.226 734.677C140.786 734.677 141.387 734.762 142.113 734.931L144.556 735.52L146.161 733.589C149.274 729.839 155.367 729.839 158.484 733.589L160.089 735.52L162.532 734.931C163.258 734.762 163.859 734.677 164.419 734.677C167.815 734.677 170.859 736.859 171.988 740.109L172.98 742.956L175.992 742.81C176.222 742.798 176.444 742.77 176.516 742.742C180.964 742.742 184.581 746.359 184.581 750.806H120.065C120.065 746.359 123.681 742.742 127.976 742.742ZM120.065 766.935V758.871H184.581V766.935H120.065ZM265.226 766.935H208.774V686.29H265.226V766.935ZM281.355 766.935H273.29V678.226H200.71V766.935H192.645V750.806C192.645 742.548 186.407 735.722 178.395 734.786C175.343 729.403 169.544 726.06 162.996 726.681C157.919 722.141 150.089 721.54 144.258 724.839V669.597C147.419 668.774 150.226 667.065 152.323 664.685C155.278 668.044 159.609 670.161 164.419 670.161C169.23 670.161 173.56 668.044 176.516 664.69C179.472 668.044 183.802 670.161 188.613 670.161C193.423 670.161 197.754 668.044 200.71 664.69C203.665 668.044 207.996 670.161 212.806 670.161C217.617 670.161 221.948 668.044 224.903 664.69C227.859 668.044 232.19 670.161 237 670.161C241.81 670.161 246.141 668.044 249.097 664.69C252.052 668.044 256.383 670.161 261.194 670.161C266.004 670.161 270.335 668.044 273.29 664.69C276.246 668.044 280.577 670.161 285.387 670.161C290.198 670.161 294.528 668.044 297.484 664.69C300.44 668.044 304.77 670.161 309.581 670.161C314.391 670.161 318.722 668.044 321.677 664.69C323.774 667.069 326.581 668.782 329.742 669.601V724.843C323.911 721.54 316.081 722.141 311.004 726.685C304.472 726.056 298.653 729.407 295.605 734.79C287.593 735.722 281.355 742.548 281.355 750.806V766.935ZM289.419 766.935V758.871H353.935V766.935H289.419Z" fill="black"/>
<path id="Vector_48" d="M224.903 722.581H216.839V730.645H224.903V722.581Z" fill="black"/>
<path id="Vector_49" d="M156.355 714.516H188.613V682.258H156.355V714.516ZM164.419 690.323H180.548V706.452H164.419V690.323Z" fill="black"/>
<path id="Vector_50" d="M317.645 682.258H285.387V714.516H317.645V682.258ZM309.581 706.452H293.452V690.323H309.581V706.452Z" fill="black"/>
</g>
<g id="mark1" filter="url(#filter3_d)">
<path id="Vector_51" d="M431.564 731.215C418.596 758.032 409.611 787.407 404.526 806.548C402.915 812.484 396.05 812.484 394.439 806.548C389.354 787.51 380.369 758.134 367.401 731.215C353.416 702.146 367.909 663.866 395.711 661.205C396.982 661.102 398.169 661 399.44 661C400.712 661 401.898 661.102 403.17 661.205C431.056 663.866 445.634 702.146 431.564 731.215Z" fill="#44C4A1"/>
<path id="Vector_52" d="M399.525 737.663C414.13 737.663 425.97 723.366 425.97 705.729C425.97 688.092 414.13 673.794 399.525 673.794C384.92 673.794 373.08 688.092 373.08 705.729C373.08 723.366 384.92 737.663 399.525 737.663Z" fill="#EBF0F3"/>
</g>
<g id="park" clip-path="url(#clip0)" filter="url(#filter4_d)">
<g id="Group_31">
<g id="Group_32">
<path id="Vector_53" fill-rule="evenodd" clip-rule="evenodd" d="M516.519 326.488C548.506 326.488 574.597 300.329 574.597 268.259C574.597 236.19 548.506 210.043 516.519 210.043C484.532 210.043 458.455 236.189 458.455 268.259C458.455 300.329 484.532 326.488 516.519 326.488Z" fill="#78C2A4"/>
<path id="Vector_54" fill-rule="evenodd" clip-rule="evenodd" d="M516.519 326.488C548.589 326.488 574.597 300.426 574.597 268.259C574.597 249.131 565.392 232.148 551.177 221.546C558.444 231.262 562.735 243.332 562.735 256.412C562.735 288.564 536.741 314.641 504.671 314.641C491.687 314.641 479.687 310.364 470.012 303.139C480.601 317.312 497.5 326.488 516.519 326.488Z" fill="#66B394"/>
<path id="Vector_55" fill-rule="evenodd" clip-rule="evenodd" d="M538.526 310.114H638.958V327.54H538.526V310.114Z" fill="#B2A17D"/>
<path id="Vector_56" fill-rule="evenodd" clip-rule="evenodd" d="M532.063 353.174H645.422C646.723 353.174 647.789 352.108 647.789 350.807V342.724C647.789 341.422 646.723 340.357 645.422 340.357H532.063C530.762 340.357 529.696 341.423 529.696 342.724V350.807C529.696 352.108 530.762 353.174 532.063 353.174Z" fill="#A39474"/>
<path id="Vector_57" fill-rule="evenodd" clip-rule="evenodd" d="M538.54 318.723H638.848V327.443H538.54V318.723Z" fill="#A39474"/>
<path id="Vector_58" fill-rule="evenodd" clip-rule="evenodd" d="M455.701 337.021C479.646 337.021 499.176 317.491 499.176 293.546C499.176 269.601 479.646 250.072 455.701 250.072C431.755 250.072 412.225 269.602 412.225 293.546C412.225 317.492 431.755 337.021 455.701 337.021Z" fill="#B3E59F"/>
<path id="Vector_59" fill-rule="evenodd" clip-rule="evenodd" d="M455.701 337.021C479.701 337.021 499.176 317.561 499.176 293.546C499.176 278.515 491.535 265.255 479.937 257.449C484.601 264.383 487.328 272.715 487.328 281.698C487.328 305.712 467.854 325.173 443.853 325.173C434.87 325.173 426.524 322.446 419.603 317.796C427.409 329.395 440.655 337.021 455.701 337.021Z" fill="#95D6A4"/>
<path id="Vector_60" fill-rule="evenodd" clip-rule="evenodd" d="M426.606 403.957H633.394C643.263 403.957 651.346 395.887 651.346 386.019C651.346 376.15 643.263 368.081 633.394 368.081H426.606C416.737 368.081 408.668 376.15 408.668 386.019C408.668 395.887 416.737 403.957 426.606 403.957Z" fill="#B3E59F"/>
<path id="Vector_61" fill-rule="evenodd" clip-rule="evenodd" d="M408.668 386.019C408.668 395.887 416.737 403.957 426.606 403.957H633.394C643.263 403.957 651.346 395.887 651.346 386.019C651.346 383.942 650.986 381.949 650.336 380.095C647.872 387.071 641.201 392.108 633.395 392.108H426.606C418.813 392.108 412.142 387.07 409.679 380.095C409.014 381.949 408.668 383.942 408.668 386.019Z" fill="#95D6A4"/>
</g>
<path id="Vector_62" d="M478.483 252.286C482.524 254.528 486.207 257.338 489.418 260.619C490.815 262.072 490.788 264.383 489.349 265.781C487.895 267.193 485.583 267.166 484.186 265.712C480.49 261.947 476.061 258.902 471.133 256.826C466.247 254.764 461.001 253.726 455.701 253.726C444.697 253.726 434.745 258.183 427.548 265.394C420.336 272.591 415.88 282.556 415.88 293.546C415.88 304.536 420.336 314.488 427.548 321.699C433.942 328.094 442.496 332.329 452.033 333.187V293.546C452.033 291.525 453.68 289.878 455.701 289.878C457.722 289.878 459.355 291.525 459.355 293.546V306.571L467.411 300.19C468.988 298.945 471.286 299.222 472.532 300.799C473.777 302.377 473.514 304.675 471.936 305.92L459.354 315.872V333.187C468.891 332.329 477.458 328.094 483.854 321.699C491.051 314.488 495.508 304.536 495.508 293.546C495.508 290.764 495.245 288.107 494.719 285.56C494.193 282.93 493.39 280.37 492.338 277.934C491.549 276.079 492.421 273.934 494.276 273.145C496.131 272.355 498.276 273.214 499.065 275.068C500.283 277.934 501.238 280.965 501.875 284.106C502.498 287.193 502.83 290.349 502.83 293.546C502.83 302.765 500.187 311.374 495.605 318.64C498.276 319.733 501.059 320.633 503.91 321.312C506.803 322.003 509.806 322.488 512.865 322.696V268.259C512.865 266.238 514.499 264.605 516.519 264.605C518.54 264.605 520.187 266.238 520.187 268.259V288.273L532.976 278.141C534.554 276.896 536.852 277.158 538.097 278.736C539.343 280.314 539.08 282.612 537.502 283.857L520.187 297.56V322.709C523.148 322.516 526.042 322.086 528.837 321.436C532.173 320.661 535.371 319.595 538.416 318.267V310.114V305.45C538.416 303.429 540.062 301.796 542.083 301.796C544.104 301.796 545.737 303.429 545.737 305.45V306.446H555.509C560.257 301.616 564.104 295.886 566.79 289.561C569.559 283.027 571.081 275.844 571.081 268.259C571.081 262.197 570.112 256.397 568.312 251.013C566.444 245.394 563.689 240.189 560.202 235.552C558.998 233.933 559.33 231.649 560.936 230.445C562.555 229.227 564.839 229.559 566.043 231.165C569.988 236.424 573.116 242.334 575.233 248.715C577.296 254.888 578.403 261.462 578.403 268.258C578.403 276.798 576.659 284.951 573.517 292.383C571.357 297.449 568.548 302.183 565.198 306.446H580.687C582.708 306.446 584.355 308.093 584.355 310.114C584.355 312.135 582.708 313.768 580.687 313.768H545.737V323.872H631.732V313.768H596.797C594.763 313.768 593.129 312.134 593.129 310.114C593.129 308.093 594.763 306.446 596.797 306.446H631.732V305.449C631.732 303.428 633.38 301.795 635.401 301.795C637.422 301.795 639.055 303.429 639.055 305.449V310.114V327.54V336.688H647.789C649.81 336.688 651.442 338.335 651.442 340.356V353.173C651.442 355.194 649.809 356.841 647.789 356.841H639.055V365.173C642.736 366.17 646.031 368.135 648.661 370.751C652.578 374.669 655 380.067 655 386.019C655 391.957 652.578 397.368 648.661 401.285C644.744 405.188 639.346 407.624 633.394 407.624H426.606C420.655 407.624 415.256 405.188 411.339 401.285C407.436 397.368 405 391.957 405 386.019C405 380.067 407.436 374.669 411.339 370.752C415.256 366.849 420.654 364.413 426.606 364.413H452.032V340.537C440.475 339.651 430.08 334.599 422.357 326.876C413.831 318.35 408.557 306.557 408.557 293.547C408.557 280.522 413.831 268.744 422.357 260.218C430.897 251.678 442.676 246.404 455.701 246.404C456.669 246.404 457.638 246.432 458.593 246.501C462.954 235.165 470.594 225.324 480.338 218.238C490.553 210.805 503.052 206.376 516.519 206.376C523.315 206.376 529.89 207.497 536.062 209.545C542.443 211.663 548.354 214.791 553.613 218.736C555.232 219.954 555.551 222.237 554.347 223.843C553.128 225.462 550.845 225.781 549.239 224.577C544.589 221.089 539.384 218.334 533.779 216.466C528.38 214.68 522.581 213.698 516.519 213.698C504.629 213.698 493.611 217.587 484.628 224.134C476.476 230.058 469.999 238.183 466.054 247.553C468.033 248.01 471.839 249.255 471.839 249.255C472.857 249.6 473.958 250.023 475.114 250.545C476.368 251.111 477.491 251.706 478.483 252.286ZM631.733 364.413V356.842H545.737V364.413H631.733ZM538.416 364.413V356.842H529.696C527.675 356.842 526.028 355.194 526.028 353.174V340.357C526.028 338.336 527.675 336.689 529.696 336.689H538.416V326.142C535.841 327.125 533.183 327.928 530.471 328.564C527.122 329.326 523.688 329.838 520.187 330.045V364.413H538.416ZM512.865 364.413V330.031C509.28 329.796 505.709 329.242 502.221 328.412C498.317 327.471 494.58 326.211 491.092 324.675C490.428 325.422 489.736 326.17 489.03 326.875C481.307 334.599 470.911 339.65 459.354 340.537V364.412H512.865V364.413ZM426.606 400.302H633.394C637.325 400.302 640.896 398.683 643.484 396.095C646.073 393.506 647.678 389.936 647.678 386.019C647.678 382.101 646.073 378.53 643.484 375.942C640.896 373.34 637.325 371.734 633.394 371.734C564.465 371.734 495.536 371.734 426.606 371.734C422.689 371.734 419.118 373.34 416.53 375.942C413.928 378.531 412.322 382.102 412.322 386.019C412.322 389.936 413.928 393.506 416.53 396.095C419.118 398.697 422.689 400.302 426.606 400.302ZM545.737 331.194V336.689H631.732V331.194H545.737ZM644.121 349.506V344.011H533.35V349.506H644.121Z" fill="black"/>
</g>
</g>
<g id="mark3" filter="url(#filter5_d)">
<path id="Vector_63" d="M588.606 420.259C575.634 447.11 566.647 476.422 561.551 495.553C559.975 501.482 553.119 501.482 551.451 495.553C546.355 476.422 537.367 447.11 524.395 420.259C510.404 391.171 524.951 352.909 552.748 350.224C553.953 350.112 555.25 350 556.455 350C557.659 350 558.956 350.112 560.161 350.224C588.05 352.909 602.598 391.171 588.606 420.259Z" fill="#E56353"/>
<path id="Vector_64" d="M556.455 426.748C571.09 426.748 582.954 412.423 582.954 394.751C582.954 377.08 571.09 362.754 556.455 362.754C541.819 362.754 529.955 377.08 529.955 394.751C529.955 412.423 541.819 426.748 556.455 426.748Z" fill="#EBF0F3"/>
</g>
<g id="banel">
<path id="&#235;&#130;&#180; &#236;&#183;&#168;&#237;&#150;&#165;&#236;&#151;&#144; &#235;&#167;&#158;&#235;&#138;&#148; &#236;&#189;&#148;&#236;&#138;&#164;" d="M312.875 30.0781V33.1719H295.906L294.5 31.1094V11.6094H297.594V29.6094L312.875 30.0781ZM325.531 10.0156H328.719V41.7031H325.531V23.1406H320.188V41.4219H316.812V10.1094H320.188V19.9531H325.531V10.0156ZM390.594 16.4844H382.812V20.2344L391.812 28.5781L389.75 30.7344L381.5 23.0469L373.062 30.6406L370.719 28.2969L379.625 20.3281V16.4844H370.906V13.4844H379.625V6.82812H382.719V13.5781H390.594V16.4844ZM384.125 37.5781V45.8281H381.031V37.5781H371V35.0469H392.375V37.0156L384.125 37.5781ZM397.812 11.3281H400.156V43.2969H397.812V11.3281ZM422.094 25.2969C422.125 24.4219 422.312 23.5 422.656 22.5312C423 21.5625 423.531 20.7969 424.25 20.2344L419 19.6719L419.469 16.7656L429.5 17.7969L430.062 11.4219L433.156 11.7031L432.688 18.1719L441.219 19.0156L440.938 22.0156L436.25 21.6406C436.75 22.2344 437.094 22.9688 437.281 23.8438C437.469 24.7188 437.562 25.5156 437.562 26.2344C437.469 27.2969 437.203 28.2812 436.766 29.1875C436.328 30.0938 435.766 30.8906 435.078 31.5781C434.422 32.2344 433.672 32.75 432.828 33.125C431.984 33.5 431.125 33.6875 430.25 33.6875C428.469 33.6875 427.047 33.375 425.984 32.75C424.922 32.125 424.094 31.375 423.5 30.5C422.938 29.625 422.562 28.7031 422.375 27.7344C422.188 26.7656 422.094 25.9531 422.094 25.2969ZM425.094 25.2969C425.062 25.3906 425.047 25.5312 425.047 25.7188C425.047 26.25 425.156 26.7969 425.375 27.3594C425.594 27.8906 425.891 28.3906 426.266 28.8594C426.672 29.3281 427.156 29.7188 427.719 30.0312C428.312 30.3125 428.969 30.4531 429.688 30.4531C430.469 30.4531 431.156 30.3125 431.75 30.0312C432.344 29.75 432.844 29.3906 433.25 28.9531C433.656 28.4844 433.953 27.9531 434.141 27.3594C434.359 26.7344 434.469 26.0938 434.469 25.4375C434.469 24.0312 434.031 22.9219 433.156 22.1094C432.281 21.2656 431.141 20.8438 429.734 20.8438C428.453 20.8438 427.375 21.2656 426.5 22.1094C425.656 22.9219 425.188 23.9844 425.094 25.2969ZM445.344 12.3594H448.531V19.0156H455.844V22.2031H448.531V26.7969H455.844V29.9844H448.438V35.4219H445.156L445.344 12.3594ZM446.188 44.7969C446.188 43.6406 445.641 42.6719 444.547 41.8906C443.484 41.0781 442 40.6719 440.094 40.6719C438.125 40.6719 436.609 41.0781 435.547 41.8906C434.516 42.6719 434 43.6406 434 44.7969C434 45.9844 434.516 46.9844 435.547 47.7969C436.609 48.6094 438.125 49.0156 440.094 49.0156C442 49.0156 443.484 48.6094 444.547 47.7969C445.641 46.9844 446.188 45.9844 446.188 44.7969ZM430.719 44.7969C430.719 43.8594 430.906 42.9688 431.281 42.125C431.688 41.2812 432.281 40.5469 433.062 39.9219C433.875 39.2656 434.859 38.7656 436.016 38.4219C437.172 38.0469 438.531 37.8594 440.094 37.8594C441.625 37.8594 442.969 38.0469 444.125 38.4219C445.312 38.7656 446.297 39.2656 447.078 39.9219C447.891 40.5469 448.484 41.2812 448.859 42.125C449.266 42.9688 449.469 43.8594 449.469 44.7969C449.469 45.7969 449.266 46.7188 448.859 47.5625C448.484 48.4062 447.891 49.1406 447.078 49.7656C446.297 50.4219 445.312 50.9219 444.125 51.2656C442.969 51.6406 441.625 51.8281 440.094 51.8281C438.531 51.8281 437.172 51.6406 436.016 51.2656C434.859 50.9219 433.875 50.4219 433.062 49.7656C432.281 49.1406 431.688 48.4062 431.281 47.5625C430.906 46.7188 430.719 45.7969 430.719 44.7969ZM473.75 26.2344C473.75 27.3281 473.891 28.3125 474.172 29.1875C474.484 30.0625 474.875 30.8281 475.344 31.4844C475.812 32.1094 476.359 32.5938 476.984 32.9375C477.609 33.2812 478.281 33.4531 479 33.4531C480.5 33.4531 481.75 32.8125 482.75 31.5312C483.75 30.25 484.25 28.4844 484.25 26.2344C484.25 25.3594 484.141 24.4844 483.922 23.6094C483.734 22.7344 483.422 21.9531 482.984 21.2656C482.547 20.5469 481.984 19.9844 481.297 19.5781C480.609 19.1406 479.797 18.9219 478.859 18.9219C478.016 18.9219 477.266 19.125 476.609 19.5312C475.984 19.9062 475.453 20.4219 475.016 21.0781C474.609 21.7344 474.297 22.5156 474.078 23.4219C473.859 24.2969 473.75 25.2344 473.75 26.2344ZM470.656 26.2344C470.656 25.1094 470.797 23.9375 471.078 22.7188C471.391 21.5 471.875 20.3906 472.531 19.3906C473.188 18.3594 474.047 17.5312 475.109 16.9062C476.172 16.25 477.469 15.9219 479 15.9219C480.219 15.9531 481.281 16.2031 482.188 16.6719C483.125 17.1094 483.922 17.7031 484.578 18.4531C485.266 19.2031 485.812 20.0625 486.219 21.0312C486.625 21.9688 486.922 22.9375 487.109 23.9375L493.438 23.9844V13.3906H496.531V40.3906L493.625 40.5781V27.0781L487.344 27.0312C487.281 28.3125 487.062 29.5312 486.688 30.6875C486.312 31.8438 485.781 32.8594 485.094 33.7344C484.406 34.6094 483.547 35.3125 482.516 35.8438C481.516 36.375 480.344 36.6406 479 36.6406C477.5 36.6406 476.219 36.3125 475.156 35.6562C474.094 35 473.219 34.1719 472.531 33.1719C471.875 32.1719 471.391 31.0625 471.078 29.8438C470.797 28.5938 470.656 27.3906 470.656 26.2344ZM501.594 41.7969V12.3594H504.781V41.5156L501.594 41.7969ZM546.688 13.7656H562.344V32.9844H548.094L546.594 31.2031L546.688 13.7656ZM559.25 16.8594H549.781V29.4219H559.062L559.25 16.8594ZM570.781 10.1094H573.969V20.1406H581.281V23.3281H573.969V35.0469H570.594L570.781 10.1094ZM555.406 50.5156L563.281 44.8906L563.75 41.1406H554.938V38.2344H575.188V40.9531H566.844L566.469 44.7969L574.906 50.7031L573.125 52.9531L564.969 47.3281L557.562 52.8594L555.406 50.5156ZM606.781 26.5156L604.531 24.5469V10.8594H607.719V23.5156H623.75V26.4219L606.781 26.5156ZM630.5 33.8281H597.5L597.688 31.2031H630.406L630.5 33.8281ZM605.656 50.8906L603.594 49.2969V38.7031H606.5V47.7031L627.781 48.1719C627.781 48.7969 627.781 49.2812 627.781 49.625C627.812 50 627.828 50.2812 627.828 50.4688C627.828 50.6562 627.828 50.7969 627.828 50.8906C627.859 50.9844 627.875 51.0781 627.875 51.1719L605.656 50.8906ZM698.469 15.1719V34.2969H694.719V23.6094H676.344V19.8594H695V16.6719H676.625V12.6406H697.344L698.469 15.1719ZM685.344 39.3594H701.562V42.9219H673.438V39.0781H682.625V26.7031H685.344V39.3594ZM728 32.5156L737.375 21.8281V14.4219H740.75V21.8281L750.688 30.9219L749 33.3594L739.25 24.7344L730.438 34.7656L728 32.5156ZM754.812 44.7969H724.062V41.7031H754.812V44.7969Z" fill="black"/>
<g id="title" filter="url(#filter6_d)">
<path fill-rule="evenodd" clip-rule="evenodd" d="M243.625 115.406V90.0938H249.062V149.906H244.938V121.031H217.188V149.906H209.5V90.2812H218.312V115.406H243.625ZM228.312 105.406H233.625V80.0938H259.062V159.906H234.938V131.031H227.188V159.906H199.5V80.2812H228.312V105.406ZM326.594 120.844C326.531 119.844 326.438 118.844 326.312 117.844C326.307 117.8 326.301 117.756 326.296 117.712C326.286 117.638 326.277 117.563 326.267 117.488C325.88 114.597 325.177 111.591 324.156 108.469C324.076 108.219 323.994 107.971 323.909 107.724C322.875 104.701 321.52 101.918 319.844 99.375C319.816 99.3329 319.788 99.291 319.76 99.2491C319.718 99.1865 319.676 99.1241 319.634 99.062C317.881 96.4832 315.761 94.3565 313.273 92.6821C313.244 92.663 313.216 92.644 313.188 92.625C310.562 90.8125 307.469 89.9062 303.906 89.9062C300.406 89.9062 297.375 90.6875 294.812 92.25C294.634 92.3588 294.458 92.47 294.284 92.5836C294.241 92.6116 294.198 92.6397 294.155 92.668C291.885 94.1742 289.979 96.0974 288.438 98.4375C288.311 98.6291 288.188 98.8226 288.066 99.018C288.04 99.0597 288.015 99.1015 287.989 99.1434C286.527 101.53 285.426 104.201 284.688 107.156C284.681 107.181 284.675 107.206 284.669 107.231C283.964 110.072 283.57 112.985 283.486 115.969C283.474 116.374 283.469 116.78 283.469 117.188C283.469 120.56 283.727 123.714 284.243 126.648C284.53 128.281 284.897 129.847 285.344 131.344C286.04 133.567 286.852 135.622 287.777 137.511C287.785 137.527 287.793 137.543 287.801 137.559C288.613 139.209 289.513 140.731 290.5 142.125C291.705 143.744 293.006 145.163 294.401 146.383C294.425 146.404 294.449 146.425 294.473 146.446C295.588 147.414 296.764 148.255 298 148.969C300.524 150.371 303.149 151.144 305.875 151.288C306.186 151.304 306.499 151.312 306.812 151.312C310.188 151.312 313.125 150.5 315.625 148.875C315.837 148.737 316.045 148.596 316.251 148.452C316.293 148.422 316.335 148.392 316.377 148.362C318.541 146.811 320.353 144.857 321.812 142.5C322.065 142.092 322.308 141.677 322.541 141.254C322.55 141.236 322.56 141.218 322.57 141.201C323.821 138.916 324.788 136.411 325.469 133.688C325.553 133.345 325.632 133.002 325.708 132.66C326.327 129.846 326.652 127.032 326.685 124.219C326.687 124.062 326.688 123.906 326.688 123.75C326.688 122.812 326.66 121.902 326.605 121.019C326.604 121.01 326.604 121.002 326.603 120.993C326.6 120.943 326.597 120.893 326.594 120.844ZM336.573 120.203C336.65 121.367 336.688 122.55 336.688 123.75C336.688 127.889 336.179 132.001 335.181 136.07L335.176 136.091L335.17 136.113C334.128 140.28 332.528 144.189 330.315 147.764C327.943 151.595 324.854 154.803 321.075 157.259C316.746 160.073 311.859 161.312 306.812 161.312C301.964 161.312 297.364 160.055 293.144 157.71L293.07 157.669L292.997 157.627C288.865 155.24 285.376 151.987 282.48 148.098L282.409 148.002L282.34 147.905C279.508 143.907 277.368 139.331 275.801 134.335L275.781 134.269L275.762 134.204C274.185 128.924 273.469 123.218 273.469 117.188C273.469 112.954 273.97 108.795 274.986 104.731C276.047 100.488 277.724 96.5242 280.086 92.9376C282.566 89.1711 285.755 86.0602 289.606 83.712C293.982 81.044 298.879 79.9062 303.906 79.9062C309.224 79.9062 314.329 81.2832 318.8 84.3481C322.558 86.8663 325.692 90.0767 328.193 93.8719C330.528 97.4147 332.346 101.268 333.67 105.387C334.901 109.158 335.773 112.901 336.235 116.603C336.385 117.801 336.498 119.001 336.573 120.203ZM320.406 121.406C320.403 121.356 320.4 121.307 320.397 121.257C320.396 121.248 320.396 121.24 320.395 121.231C320.333 120.305 320.244 119.434 320.128 118.617C320.127 118.609 320.126 118.601 320.125 118.594C319.608 115.72 318.932 113.006 318.098 110.449C318.094 110.438 318.091 110.427 318.087 110.416C318.017 110.203 317.947 109.992 317.875 109.781C316.97 107.126 315.861 104.821 314.548 102.865C314.501 102.795 314.454 102.725 314.406 102.656C313.094 100.594 311.562 98.9688 309.812 97.7812C309.798 97.7715 309.784 97.7618 309.769 97.7522C309.742 97.7335 309.714 97.7149 309.686 97.6965C307.968 96.5655 306.041 96 303.906 96C301.653 96 299.693 96.5075 298.027 97.5224C297.891 97.6053 297.757 97.6916 297.625 97.7812C296.029 98.8075 294.666 100.146 293.538 101.796C293.429 101.955 293.323 102.117 293.219 102.281C292.094 104.156 291.25 106.281 290.688 108.656C290.125 111.031 289.844 113.469 289.844 115.969C289.844 116.371 289.85 116.777 289.861 117.188C289.935 119.775 290.242 122.525 290.781 125.438C291.03 126.783 291.334 128.088 291.692 129.354C291.701 129.383 291.709 129.412 291.717 129.441C292.253 131.319 292.91 133.11 293.688 134.812C294.272 136.066 294.925 137.226 295.646 138.293C295.675 138.335 295.704 138.377 295.732 138.419C296.608 139.695 297.583 140.837 298.656 141.844C299.403 142.523 300.195 143.079 301.032 143.512C301.063 143.528 301.094 143.544 301.125 143.56C302.575 144.291 304.158 144.656 305.875 144.656C306.193 144.656 306.506 144.648 306.812 144.631C308.773 144.525 310.501 144.079 311.996 143.293C312.244 143.163 312.484 143.023 312.719 142.875C314.22 141.874 315.481 140.653 316.501 139.212C316.755 138.853 316.994 138.48 317.219 138.094C318.274 136.316 319.059 134.365 319.571 132.241C319.573 132.232 319.575 132.223 319.577 132.215C319.639 131.958 319.696 131.699 319.75 131.438C320.25 129 320.5 126.594 320.5 124.219C320.5 124.062 320.499 123.906 320.497 123.75C320.489 122.969 320.458 122.188 320.406 121.406ZM301.73 107.535C301.217 108.416 300.757 109.531 300.418 110.961C300.039 112.563 299.844 114.226 299.844 115.969C299.844 118.204 300.082 120.745 300.614 123.617C301.1 126.239 301.83 128.56 302.767 130.621C303.587 132.368 304.501 133.598 305.428 134.484C305.508 134.554 305.565 134.592 305.594 134.611C305.602 134.616 305.608 134.62 305.614 134.623C305.621 134.627 305.626 134.63 305.63 134.631C305.635 134.634 305.638 134.635 305.638 134.635L305.642 134.636C305.644 134.637 305.652 134.639 305.666 134.642C305.692 134.646 305.758 134.656 305.875 134.656C306.485 134.656 306.87 134.589 307.083 134.533C307.2 134.503 307.274 134.474 307.318 134.454C307.853 134.07 308.247 133.63 308.571 133.072L308.595 133.03L308.62 132.988C309.2 132.011 309.662 130.85 309.954 129.428C310.325 127.62 310.5 125.887 310.5 124.219C310.5 123.504 310.476 122.788 310.428 122.071L310.427 122.051L310.426 122.03C310.382 121.333 310.321 120.717 310.249 120.176C309.772 117.574 309.153 115.189 308.41 113.008C307.711 110.959 306.933 109.438 306.166 108.322L306.065 108.175L305.97 108.025C305.276 106.935 304.656 106.367 304.197 106.056C304.176 106.042 304.161 106.033 304.151 106.027C304.145 106.023 304.141 106.021 304.139 106.021C304.137 106.02 304.136 106.019 304.136 106.019C304.137 106.02 304.137 106.02 304.136 106.019C304.136 106.019 304.123 106.015 304.092 106.011C304.06 106.006 304 106 303.906 106C303.501 106 303.296 106.049 303.236 106.066C303.228 106.068 303.222 106.07 303.217 106.072L303.137 106.126L303.033 106.193C302.608 106.466 302.17 106.865 301.73 107.535ZM381.812 96.2812L386.875 150.281L380.876 150.844L376 97.0312H355.562V91.5938H403V96.2812H381.812ZM392.794 106.281H413V81.5938H345.562V107.031H366.865L371.821 161.736L397.765 159.304L392.794 106.281ZM444.758 90.8988C444.527 90.9109 444.295 90.9238 444.062 90.9375C442.601 91.0234 441.14 91.1242 439.679 91.2397C439.015 91.2921 438.351 91.3477 437.688 91.4062L434.688 94.9688L439.188 155.531L445.188 155.156L442.938 124.781C444.233 124.73 445.559 124.664 446.915 124.582C448.187 124.506 449.486 124.416 450.812 124.312C450.85 124.309 450.888 124.306 450.926 124.303C451.583 124.251 452.247 124.196 452.917 124.138C452.966 124.133 453.014 124.129 453.062 124.125C455.632 123.855 458.055 123.389 460.331 122.729C461.211 122.473 462.07 122.189 462.906 121.875C465.228 120.956 467.232 119.719 468.917 118.163C468.945 118.138 468.972 118.112 468.999 118.087C469.461 117.655 469.899 117.199 470.312 116.719C472.312 114.469 473.312 111.344 473.312 107.344C473.312 107.25 473.312 107.156 473.311 107.062C473.279 103.754 472.686 101.067 471.531 99C471.424 98.803 471.314 98.6101 471.2 98.4213C471.178 98.3848 471.156 98.3486 471.133 98.3124C469.99 96.4558 468.497 94.9974 466.656 93.9375C466.152 93.6321 465.626 93.3509 465.077 93.094C465.018 93.0664 464.959 93.039 464.899 93.0119C463.247 92.2606 461.395 91.7253 459.344 91.4062C458.844 91.3267 458.335 91.2543 457.818 91.1892C457.809 91.188 457.8 91.1869 457.79 91.1857C455.611 90.9124 453.285 90.7677 450.812 90.7515C450.657 90.7505 450.501 90.75 450.344 90.75C448.573 90.75 446.78 90.7961 444.963 90.8882C444.895 90.8916 444.826 90.8952 444.758 90.8988ZM445.375 96.6562C445.195 96.6691 445.018 96.6826 444.843 96.6968C444.695 96.7088 444.548 96.7214 444.403 96.7344C444.286 96.745 444.169 96.7559 444.054 96.7671C442.858 96.8836 441.798 97.0341 440.875 97.2188L442.75 118.969C443.932 118.969 445.18 118.944 446.493 118.895C447.748 118.848 449.063 118.779 450.438 118.688C451.124 118.628 451.801 118.552 452.466 118.46C452.499 118.456 452.532 118.451 452.564 118.446C454.648 118.153 456.627 117.703 458.5 117.094C459.264 116.846 459.989 116.562 460.677 116.244C460.711 116.229 460.744 116.213 460.777 116.198C462.3 115.482 463.634 114.593 464.781 113.531C465.083 113.261 465.359 112.974 465.609 112.669C465.63 112.644 465.651 112.618 465.671 112.593C466.779 111.203 467.356 109.454 467.403 107.344C467.405 107.251 467.406 107.157 467.406 107.062C467.406 105.041 466.982 103.359 466.134 102.016C466.12 101.995 466.107 101.974 466.093 101.952C466.062 101.905 466.031 101.859 466 101.812C465.343 100.806 464.533 99.9674 463.57 99.2978C463.532 99.2713 463.494 99.2452 463.455 99.2192C463.077 98.9645 462.675 98.7352 462.25 98.5312C461.102 97.9342 459.835 97.4721 458.451 97.1451C458.445 97.1435 458.438 97.142 458.431 97.1405C457.938 97.0244 457.43 96.9255 456.906 96.8438C454.977 96.5326 452.955 96.3763 450.839 96.375C450.83 96.375 450.821 96.375 450.812 96.375C450.762 96.375 450.711 96.3751 450.66 96.3752C450.554 96.3755 450.449 96.3761 450.344 96.377C448.635 96.3913 446.979 96.4844 445.375 96.6562ZM451.702 106.387L451.879 108.435C453.151 108.223 454.325 107.936 455.409 107.583C455.935 107.412 456.374 107.228 456.743 107.04C456.367 106.92 455.912 106.81 455.362 106.724L455.338 106.72L455.314 106.716C454.197 106.536 452.995 106.423 451.702 106.387ZM460.899 81.5279C457.557 80.9972 454.029 80.75 450.344 80.75C448.079 80.75 445.79 80.8186 443.475 80.9548C441.253 81.0855 439.03 81.2489 436.809 81.445L432.697 81.8077L424.413 91.6451L429.947 166.128L455.907 164.506L453.656 134.111C453.749 134.103 453.843 134.095 453.936 134.087L454.023 134.079L454.109 134.07C458.417 133.617 462.537 132.693 466.417 131.238L466.502 131.206L466.587 131.173C470.935 129.452 474.767 126.851 477.842 123.3C481.899 118.698 483.312 112.949 483.312 107.344C483.312 102.884 482.562 98.2696 480.292 94.1788C478.285 90.5003 475.42 87.469 471.745 85.3285C468.413 83.3286 464.73 82.1259 460.899 81.5279ZM494.625 148.839V79.9062H521.188V132.969H554.938V159.719H503.691L494.625 148.839ZM511.188 89.9062H504.625V145.219L508.375 149.719H544.938V142.969H511.188V89.9062ZM625.438 133.531V160.094H574.812L566.438 148.927V92.9798L574.937 80.6562H620.375V106.094H593V107.094H622.25V132.156H592.625V133.531H625.438ZM582.625 122.156H612.25V117.094H583V96.0938H610.375V90.6562H580.188L576.438 96.0938V145.594L579.812 150.094H615.438V143.531H582.625V122.156ZM715.375 116.719V122.719H731.5C731.36 124.069 731.012 125.403 730.456 126.719C730.266 127.169 730.051 127.617 729.812 128.062C729.66 128.356 729.5 128.644 729.331 128.926C729.294 128.987 729.257 129.047 729.22 129.108C728.756 129.859 728.23 130.569 727.643 131.238C727.4 131.515 727.147 131.786 726.882 132.049C726.707 132.223 726.528 132.394 726.344 132.562C726.286 132.615 726.228 132.667 726.17 132.719C725.911 132.949 725.644 133.172 725.37 133.387C725.321 133.426 725.271 133.464 725.221 133.503C724.666 133.928 724.083 134.322 723.472 134.683C723.251 134.814 723.026 134.941 722.797 135.064C722.739 135.094 722.681 135.125 722.623 135.155C722.239 135.356 721.844 135.545 721.439 135.722C721.418 135.731 721.397 135.741 721.375 135.75C720.552 136.119 719.709 136.404 718.848 136.606C717.812 136.848 716.748 136.969 715.656 136.969C715.339 136.969 715.026 136.961 714.719 136.947C712.603 136.846 710.725 136.399 709.085 135.605C709.067 135.596 709.049 135.587 709.031 135.579C708.957 135.543 708.885 135.506 708.812 135.469C707.225 134.598 705.847 133.518 704.679 132.228C704.422 131.943 704.175 131.649 703.938 131.344C702.968 129.987 702.168 128.48 701.537 126.823C701.517 126.769 701.497 126.715 701.477 126.661C701.317 126.232 701.168 125.793 701.031 125.344C700.495 123.359 700.188 121.327 700.113 119.25C700.1 118.908 700.094 118.564 700.094 118.219C700.094 114.455 700.522 111.005 701.379 107.869C701.384 107.849 701.39 107.829 701.395 107.809C701.429 107.685 701.464 107.561 701.5 107.438C702.5 104.125 703.812 101.312 705.438 99C705.444 98.9911 705.45 98.9822 705.456 98.9734C705.461 98.9667 705.466 98.96 705.471 98.9533C707.116 96.6497 709.028 94.8787 711.206 93.6401C711.234 93.624 711.262 93.608 711.291 93.5921C711.308 93.5822 711.326 93.5723 711.344 93.5625C713.435 92.3757 715.654 91.7255 718 91.6118C718.249 91.5998 718.499 91.5938 718.75 91.5938C719.92 91.5938 721.061 91.7358 722.174 92.0198C722.25 92.0392 722.326 92.0593 722.402 92.08C723.232 92.3071 724.046 92.6138 724.844 93C725.177 93.1612 725.5 93.3381 725.813 93.5308C725.867 93.5641 725.921 93.5979 725.974 93.6321C726.733 94.1181 727.431 94.6987 728.068 95.3739C728.501 95.8333 728.906 96.3364 729.282 96.8834C729.399 97.0534 729.513 97.2277 729.625 97.4062L734.688 94.7812C734.632 94.639 734.572 94.4967 734.508 94.3544C734.309 93.9133 734.066 93.4723 733.78 93.0313C733.429 92.4896 733.013 91.9479 732.531 91.4062C731.531 90.2812 730.312 89.3125 728.875 88.5C728.408 88.2158 727.918 87.9514 727.405 87.7067C727.266 87.6404 727.125 87.5755 726.983 87.5121C726.033 87.0892 725.007 86.7311 723.906 86.4375C722.309 85.9418 720.59 85.6645 718.75 85.6056C718.502 85.5977 718.252 85.5938 718 85.5938C714.503 85.5938 711.277 86.4369 708.322 88.1232C708.305 88.1326 708.289 88.142 708.273 88.1514C708.234 88.1737 708.195 88.1962 708.156 88.2188C705.156 89.9062 702.562 92.2812 700.375 95.3438C700.366 95.3569 700.356 95.37 700.347 95.3832C700.341 95.392 700.335 95.4009 700.328 95.4098C698.298 98.2928 696.669 101.693 695.443 105.609C695.435 105.634 695.427 105.659 695.419 105.683C695.383 105.799 695.348 105.915 695.312 106.031C694.211 109.798 693.621 113.861 693.541 118.219C693.534 118.561 693.531 118.904 693.531 119.25C693.531 122.041 693.857 124.66 694.51 127.106C694.529 127.177 694.548 127.248 694.567 127.319C694.733 127.921 694.919 128.513 695.125 129.094C696.007 131.397 697.12 133.45 698.463 135.254C698.518 135.328 698.573 135.401 698.628 135.473C698.948 135.892 699.28 136.297 699.625 136.688C701.332 138.622 703.324 140.168 705.601 141.326C705.65 141.351 705.7 141.376 705.751 141.401C705.926 141.488 706.103 141.574 706.281 141.656C708.906 142.844 711.719 143.438 714.719 143.438C715.035 143.438 715.347 143.431 715.656 143.418C717.489 143.341 719.208 143.035 720.812 142.5C720.854 142.486 720.896 142.472 720.938 142.458C721.957 142.114 722.91 141.743 723.799 141.343C723.822 141.333 723.845 141.322 723.868 141.312C724.544 141.005 725.182 140.683 725.781 140.344C726.223 140.075 726.642 139.802 727.037 139.527C727.926 138.908 728.695 138.274 729.344 137.625C729.565 137.417 729.773 137.218 729.967 137.025C729.982 137.01 729.997 136.995 730.012 136.98C730.077 136.915 730.14 136.851 730.202 136.788C730.767 136.212 731.2 135.71 731.5 135.281L730.188 152.906L736 153.469L737.219 137.531C737.261 136.922 737.304 136.317 737.346 135.717C737.366 135.433 737.387 135.151 737.407 134.869C737.47 133.98 737.534 133.101 737.597 132.233C737.6 132.19 737.604 132.147 737.607 132.104C737.665 131.31 737.723 130.526 737.781 129.75C737.883 128.703 737.98 127.693 738.072 126.719C738.18 125.572 738.281 124.476 738.374 123.43C738.396 123.19 738.417 122.953 738.438 122.719H748.562V116.719H715.375ZM743.655 106.719L744.067 101.182L747.262 99.5255L744.008 91.1568C743.047 88.6879 741.608 86.5652 740.005 84.7626C738.242 82.7792 736.184 81.1629 733.935 79.8735C731.663 78.5104 729.213 77.5197 726.673 76.8263C723.855 75.9752 720.942 75.5938 718 75.5938C712.741 75.5938 707.738 76.9017 703.187 79.5407C698.823 82.0091 695.182 85.4095 692.238 89.5314L692.226 89.5474L692.215 89.5636C689.371 93.578 687.252 98.1498 685.742 103.131L685.728 103.178L685.714 103.226C684.23 108.303 683.531 113.665 683.531 119.25C683.531 123.815 684.214 128.24 685.699 132.432L685.741 132.552L685.786 132.67C687.292 136.601 689.38 140.19 692.127 143.304C694.914 146.463 698.254 148.958 702.077 150.729L702.118 150.749L702.16 150.767C706.133 152.565 710.357 153.438 714.719 153.438C716.549 153.438 718.366 153.285 720.156 152.961L719.489 161.918L745.193 164.405L747.192 138.26L747.195 138.227C747.326 136.344 747.457 134.508 747.589 132.719H758.562V106.719H743.655ZM742.648 101.918L739.287 106.719H733.389L742.648 101.918ZM723.653 106.719L721.145 102.706C720.798 102.151 720.574 102.043 720.491 102.003L720.488 102.002C719.891 101.712 719.346 101.594 718.75 101.594C717.879 101.594 717.108 101.789 716.28 102.259L716.24 102.282L716.2 102.304C715.422 102.736 714.537 103.465 713.605 104.77C713.222 105.317 712.839 105.962 712.466 106.719H723.653ZM821.406 120.844C821.344 119.844 821.25 118.844 821.125 117.844C821.12 117.8 821.114 117.756 821.108 117.712C821.099 117.638 821.089 117.563 821.079 117.488C820.693 114.597 819.989 111.591 818.969 108.469C818.889 108.219 818.806 107.971 818.722 107.724C817.687 104.701 816.332 101.918 814.656 99.375C814.629 99.3329 814.601 99.291 814.573 99.2491C814.531 99.1865 814.489 99.1241 814.447 99.062C812.694 96.4832 810.573 94.3565 808.085 92.682C808.057 92.663 808.028 92.644 808 92.625C805.375 90.8125 802.281 89.9062 798.719 89.9062C795.219 89.9062 792.188 90.6875 789.625 92.25C789.447 92.3588 789.27 92.47 789.096 92.5836C789.053 92.6116 789.01 92.6397 788.968 92.668C786.697 94.1742 784.791 96.0974 783.25 98.4375C783.124 98.6291 783 98.8226 782.879 99.018C782.853 99.0597 782.827 99.1015 782.802 99.1434C781.339 101.53 780.239 104.201 779.5 107.156C779.494 107.181 779.488 107.206 779.481 107.231C778.777 110.072 778.383 112.985 778.298 115.969C778.287 116.374 778.281 116.78 778.281 117.188C778.281 120.56 778.539 123.714 779.055 126.648C779.342 128.281 779.709 129.847 780.156 131.344C780.853 133.567 781.664 135.622 782.59 137.511C782.598 137.527 782.606 137.543 782.614 137.559C783.426 139.209 784.325 140.731 785.312 142.125C786.518 143.744 787.818 145.163 789.213 146.383C789.237 146.404 789.261 146.425 789.285 146.446C790.401 147.414 791.576 148.255 792.812 148.969C795.337 150.371 797.962 151.144 800.688 151.288C800.999 151.304 801.311 151.312 801.625 151.312C805 151.312 807.938 150.5 810.438 148.875C810.649 148.737 810.858 148.596 811.063 148.452C811.105 148.422 811.147 148.392 811.189 148.362C813.354 146.811 815.166 144.857 816.625 142.5C816.878 142.092 817.12 141.677 817.353 141.254C817.363 141.236 817.372 141.218 817.382 141.201C818.634 138.916 819.6 136.411 820.281 133.688C820.365 133.345 820.445 133.002 820.52 132.66C821.139 129.846 821.465 127.032 821.497 124.219C821.499 124.062 821.5 123.906 821.5 123.75C821.5 122.812 821.473 121.902 821.418 121.019C821.417 121.01 821.417 121.002 821.416 120.993C821.413 120.943 821.41 120.893 821.406 120.844ZM831.386 120.203C831.463 121.367 831.5 122.55 831.5 123.75C831.5 127.889 830.991 132.001 829.993 136.07L829.988 136.091L829.983 136.113C828.941 140.28 827.341 144.189 825.128 147.764C822.756 151.595 819.667 154.803 815.887 157.259C811.558 160.073 806.672 161.312 801.625 161.312C796.776 161.312 792.176 160.055 787.956 157.71L787.883 157.669L787.81 157.627C783.678 155.24 780.189 151.987 777.292 148.098L777.221 148.002L777.152 147.905C774.32 143.907 772.18 139.331 770.614 134.335L770.594 134.269L770.574 134.204C768.998 128.924 768.281 123.218 768.281 117.188C768.281 112.954 768.783 108.795 769.799 104.731C770.859 100.488 772.536 96.5242 774.898 92.9376C777.379 89.1711 780.568 86.0602 784.419 83.712C788.794 81.044 793.692 79.9062 798.719 79.9062C804.036 79.9062 809.141 81.283 813.612 84.3476C817.37 86.866 820.504 90.0764 823.006 93.8719C825.341 97.4156 827.159 101.27 828.483 105.39C829.714 109.16 830.585 112.902 831.048 116.603C831.198 117.801 831.31 119.001 831.386 120.203ZM815.219 121.406C815.216 121.356 815.212 121.307 815.209 121.257C815.209 121.248 815.208 121.24 815.207 121.231C815.146 120.305 815.057 119.434 814.941 118.617C814.94 118.609 814.939 118.601 814.938 118.594C814.42 115.72 813.745 113.006 812.91 110.449C812.907 110.438 812.903 110.427 812.899 110.416C812.83 110.203 812.759 109.992 812.688 109.781C811.782 107.126 810.674 104.821 809.361 102.865C809.314 102.795 809.266 102.725 809.219 102.656C807.906 100.594 806.375 98.9688 804.625 97.7812C804.611 97.7715 804.596 97.7618 804.582 97.7522C804.554 97.7335 804.526 97.7149 804.498 97.6965C802.78 96.5655 800.854 96 798.719 96C796.465 96 794.506 96.5075 792.84 97.5224C792.704 97.6053 792.57 97.6916 792.438 97.7812C790.841 98.8075 789.479 100.146 788.35 101.796C788.242 101.955 788.135 102.117 788.031 102.281C786.906 104.156 786.062 106.281 785.5 108.656C784.938 111.031 784.656 113.469 784.656 115.969C784.656 116.371 784.662 116.777 784.674 117.188C784.748 119.775 785.054 122.525 785.594 125.438C785.843 126.783 786.147 128.088 786.505 129.354C786.513 129.383 786.521 129.412 786.53 129.441C787.066 131.319 787.723 133.11 788.5 134.812C789.085 136.066 789.738 137.226 790.459 138.293C790.487 138.335 790.516 138.377 790.545 138.419C791.42 139.695 792.395 140.837 793.469 141.844C794.216 142.523 795.007 143.079 795.844 143.512C795.875 143.528 795.907 143.544 795.938 143.56C797.387 144.291 798.97 144.656 800.688 144.656C801.006 144.656 801.318 144.648 801.625 144.631C803.586 144.525 805.313 144.079 806.809 143.293C807.056 143.163 807.297 143.023 807.531 142.875C809.032 141.874 810.293 140.653 811.313 139.212C811.568 138.853 811.807 138.48 812.031 138.094C813.087 136.316 813.871 134.365 814.383 132.241C814.385 132.232 814.388 132.223 814.39 132.215C814.451 131.958 814.509 131.699 814.562 131.438C815.062 129 815.312 126.594 815.312 124.219C815.312 124.062 815.312 123.906 815.31 123.75C815.301 122.969 815.271 122.188 815.219 121.406ZM796.542 107.534C796.029 108.415 795.57 109.531 795.231 110.961C794.851 112.563 794.656 114.226 794.656 115.969C794.656 118.204 794.895 120.745 795.427 123.617C795.912 126.239 796.642 128.559 797.579 130.619C798.399 132.367 799.314 133.598 800.24 134.484C800.321 134.554 800.377 134.592 800.407 134.611C800.425 134.622 800.436 134.629 800.442 134.631C800.448 134.634 800.451 134.635 800.451 134.635L800.454 134.636L800.46 134.638C800.464 134.639 800.47 134.64 800.478 134.642C800.504 134.646 800.57 134.656 800.688 134.656C801.298 134.656 801.683 134.589 801.895 134.533C802.013 134.503 802.087 134.474 802.13 134.454C802.665 134.07 803.06 133.63 803.383 133.072L803.408 133.03L803.433 132.988C804.013 132.011 804.475 130.85 804.766 129.428C805.137 127.62 805.312 125.887 805.312 124.219C805.312 123.504 805.289 122.788 805.241 122.071L805.24 122.051L805.238 122.03C805.195 121.334 805.134 120.718 805.061 120.177C804.584 117.574 803.966 115.189 803.222 113.008C802.524 110.959 801.746 109.438 800.978 108.322L800.878 108.175L800.782 108.025C800.089 106.935 799.469 106.367 799.01 106.056C798.974 106.032 798.955 106.023 798.952 106.021M796.542 107.534C796.983 106.864 797.42 106.466 797.845 106.193L797.95 106.126L798.029 106.072C798.034 106.07 798.04 106.068 798.049 106.066C798.109 106.049 798.314 106 798.719 106C798.812 106 798.872 106.006 798.904 106.011C798.915 106.012 798.924 106.014 798.931 106.015C798.943 106.018 798.948 106.019 798.949 106.019M881.873 147.387L864.796 170.79L842.478 147.941L848.062 140.961V77.4688H875.75V141.264L881.873 147.387ZM863.688 155.344L868.75 148.406L861.062 140.719L855.812 147.281L863.688 155.344ZM865.75 87.4688H858.062V135.094H865.75V87.4688Z" fill="black"/>
</g>
</g>
</g>
<defs>
<filter id="filter0_d" x="739" y="376" width="258" height="258" filterUnits="userSpaceOnUse" color-interpolation-filters="sRGB">
<feFlood flood-opacity="0" result="BackgroundImageFix"/>
<feColorMatrix in="SourceAlpha" type="matrix" values="0 0 0 0 0 0 0 0 0 0 0 0 0 0 0 0 0 0 127 0"/>
<feOffset dy="4"/>
<feGaussianBlur stdDeviation="2"/>
<feColorMatrix type="matrix" values="0 0 0 0 0 0 0 0 0 0 0 0 0 0 0 0 0 0 0.25 0"/>
<feBlend mode="normal" in2="BackgroundImageFix" result="effect1_dropShadow"/>
<feBlend mode="normal" in="SourceGraphic" in2="effect1_dropShadow" result="shape"/>
</filter>
<filter id="filter1_d" x="668" y="469" width="83" height="158" filterUnits="userSpaceOnUse" color-interpolation-filters="sRGB">
<feFlood flood-opacity="0" result="BackgroundImageFix"/>
<feColorMatrix in="SourceAlpha" type="matrix" values="0 0 0 0 0 0 0 0 0 0 0 0 0 0 0 0 0 0 127 0"/>
<feOffset dy="4"/>
<feGaussianBlur stdDeviation="2"/>
<feColorMatrix type="matrix" values="0 0 0 0 0 0 0 0 0 0 0 0 0 0 0 0 0 0 0.25 0"/>
<feBlend mode="normal" in2="BackgroundImageFix" result="effect1_dropShadow"/>
<feBlend mode="normal" in="SourceGraphic" in2="effect1_dropShadow" result="shape"/>
</filter>
<filter id="filter2_d" x="108" y="525" width="258" height="258" filterUnits="userSpaceOnUse" color-interpolation-filters="sRGB">
<feFlood flood-opacity="0" result="BackgroundImageFix"/>
<feColorMatrix in="SourceAlpha" type="matrix" values="0 0 0 0 0 0 0 0 0 0 0 0 0 0 0 0 0 0 127 0"/>
<feOffset dy="4"/>
<feGaussianBlur stdDeviation="2"/>
<feColorMatrix type="matrix" values="0 0 0 0 0 0 0 0 0 0 0 0 0 0 0 0 0 0 0.25 0"/>
<feBlend mode="normal" in2="BackgroundImageFix" result="effect1_dropShadow"/>
<feBlend mode="normal" in="SourceGraphic" in2="effect1_dropShadow" result="shape"/>
</filter>
<filter id="filter3_d" x="358" y="661" width="83" height="158" filterUnits="userSpaceOnUse" color-interpolation-filters="sRGB">
<feFlood flood-opacity="0" result="BackgroundImageFix"/>
<feColorMatrix in="SourceAlpha" type="matrix" values="0 0 0 0 0 0 0 0 0 0 0 0 0 0 0 0 0 0 127 0"/>
<feOffset dy="4"/>
<feGaussianBlur stdDeviation="2"/>
<feColorMatrix type="matrix" values="0 0 0 0 0 0 0 0 0 0 0 0 0 0 0 0 0 0 0.25 0"/>
<feBlend mode="normal" in2="BackgroundImageFix" result="effect1_dropShadow"/>
<feBlend mode="normal" in="SourceGraphic" in2="effect1_dropShadow" result="shape"/>
</filter>
<filter id="filter4_d" x="401" y="182" width="258" height="258" filterUnits="userSpaceOnUse" color-interpolation-filters="sRGB">
<feFlood flood-opacity="0" result="BackgroundImageFix"/>
<feColorMatrix in="SourceAlpha" type="matrix" values="0 0 0 0 0 0 0 0 0 0 0 0 0 0 0 0 0 0 127 0"/>
<feOffset dy="4"/>
<feGaussianBlur stdDeviation="2"/>
<feColorMatrix type="matrix" values="0 0 0 0 0 0 0 0 0 0 0 0 0 0 0 0 0 0 0.25 0"/>
<feBlend mode="normal" in2="BackgroundImageFix" result="effect1_dropShadow"/>
<feBlend mode="normal" in="SourceGraphic" in2="effect1_dropShadow" result="shape"/>
</filter>
<filter id="filter5_d" x="515" y="350" width="83" height="158" filterUnits="userSpaceOnUse" color-interpolation-filters="sRGB">
<feFlood flood-opacity="0" result="BackgroundImageFix"/>
<feColorMatrix in="SourceAlpha" type="matrix" values="0 0 0 0 0 0 0 0 0 0 0 0 0 0 0 0 0 0 127 0"/>
<feOffset dy="4"/>
<feGaussianBlur stdDeviation="2"/>
<feColorMatrix type="matrix" values="0 0 0 0 0 0 0 0 0 0 0 0 0 0 0 0 0 0 0.25 0"/>
<feBlend mode="normal" in2="BackgroundImageFix" result="effect1_dropShadow"/>
<feBlend mode="normal" in="SourceGraphic" in2="effect1_dropShadow" result="shape"/>
</filter>
<filter id="filter6_d" x="195.5" y="75.5938" width="690.373" height="103.196" filterUnits="userSpaceOnUse" color-interpolation-filters="sRGB">
<feFlood flood-opacity="0" result="BackgroundImageFix"/>
<feColorMatrix in="SourceAlpha" type="matrix" values="0 0 0 0 0 0 0 0 0 0 0 0 0 0 0 0 0 0 127 0"/>
<feOffset dy="4"/>
<feGaussianBlur stdDeviation="2"/>
<feColorMatrix type="matrix" values="0 0 0 0 0 0 0 0 0 0 0 0 0 0 0 0 0 0 0.25 0"/>
<feBlend mode="normal" in2="BackgroundImageFix" result="effect1_dropShadow"/>
<feBlend mode="normal" in="SourceGraphic" in2="effect1_dropShadow" result="shape"/>
</filter>
<clipPath id="clip0">
<rect width="250" height="250" fill="white" transform="translate(405 182)"/>
</clipPath>
</defs>
</svg>
